<svg width="35" height="34" viewBox="0 0 35 34" fill="none" xmlns="http://www.w3.org/2000/svg">
<rect width="35" height="34" fill="#969696"/>
<g clip-path="url(#clip0_0_1)" filter="url(#filter0_d_0_1)">
<rect width="1002.34" height="3046" transform="translate(-526 -1366)" fill="white"/>
<rect width="1002.34" height="202.94" transform="translate(-525.305 -49.0312)" fill="#F5F7FA"/>
<g clip-path="url(#clip1_0_1)">
<g clip-path="url(#clip2_0_1)">
<g clip-path="url(#clip3_0_1)">
<path d="M33.1417 27.0704L33.1417 27.0704C33.273 26.9794 33.3848 26.8632 33.4708 26.7286L33.7641 26.9159L33.4708 26.7286C33.5567 26.594 33.6151 26.4436 33.6424 26.2863C33.6697 26.1289 33.6655 25.9677 33.63 25.812L33.9693 25.7345L33.63 25.812C33.5944 25.6563 33.5283 25.5092 33.4354 25.3792L33.4339 25.3771C32.1268 23.5191 30.3458 22.0452 28.2762 21.1087L27.7715 20.8803L28.1963 20.5247C29.4561 19.4702 30.3603 18.0531 30.7858 16.4663C31.2113 14.8795 31.1375 13.2001 30.5743 11.6568C30.0111 10.1134 28.9859 8.78118 27.6384 7.84139C26.2909 6.9016 24.6865 6.39994 23.0436 6.40471L23.042 6.40471C22.3109 6.4035 21.5832 6.50445 20.88 6.70464L20.8738 6.70642L20.8737 6.70636C20.7175 6.74769 20.5711 6.81968 20.443 6.91814C20.3149 7.0166 20.2077 7.13955 20.1276 7.27985C20.0475 7.42015 19.9961 7.57498 19.9763 7.73533C19.9566 7.89569 19.969 8.05837 20.0128 8.2139C20.0565 8.36942 20.1308 8.51468 20.2312 8.64123L19.9586 8.8576L20.2312 8.64123C20.3317 8.76778 20.4563 8.87308 20.5978 8.95101L20.43 9.25589L20.5978 8.95101C20.7394 9.02894 20.895 9.07793 21.0556 9.09514C21.2163 9.11235 21.3787 9.09743 21.5336 9.05124L21.5376 9.05005L21.5376 9.05008C22.0272 8.91039 22.534 8.84 23.0432 8.84095M33.1417 27.0704L23.0426 9.18899M33.1417 27.0704L33.1377 27.0733C32.9345 27.2185 32.6909 27.2962 32.4411 27.2955C32.2458 27.2943 32.0535 27.2467 31.8803 27.1565C31.7071 27.0664 31.5578 26.9363 31.4448 26.7771M33.1417 27.0704L31.1605 26.9779M23.0432 8.84095L23.0426 9.18899M23.0432 8.84095C23.043 8.84095 23.0428 8.84095 23.0426 8.84095V9.18899M23.0432 8.84095C24.5199 8.84113 25.936 9.42779 26.9801 10.4719C28.0244 11.5163 28.6111 12.9326 28.6111 14.4095C28.6111 15.8864 28.0244 17.3028 26.9801 18.3471C25.9358 19.3914 24.5194 19.9781 23.0426 19.9781C22.7195 19.9781 22.4097 20.1064 22.1812 20.3348C21.9528 20.5633 21.8245 20.8731 21.8245 21.1962C21.8245 21.5193 21.9528 21.8291 22.1812 22.0575C22.4097 22.286 22.7195 22.4143 23.0426 22.4143H23.043C24.6904 22.4161 26.3133 22.8133 27.7754 23.5726C29.2373 24.3317 30.4957 25.4307 31.4448 26.7771M23.0426 9.18899C24.4271 9.18899 25.755 9.73901 26.734 10.718C27.7131 11.6971 28.2631 13.0249 28.2631 14.4095C28.2631 15.7941 27.7131 17.1219 26.734 18.101C25.755 19.08 24.4271 19.63 23.0426 19.63C22.6272 19.63 22.2288 19.795 21.9351 20.0887C21.6414 20.3825 21.4764 20.7808 21.4764 21.1962C21.4764 21.6116 21.6414 22.0099 21.9351 22.3036C22.2288 22.5973 22.6272 22.7623 23.0426 22.7623C24.6343 22.7641 26.2023 23.1479 27.615 23.8814C29.0276 24.615 30.2435 25.6769 31.1605 26.9779M31.4448 26.7771C31.4446 26.7769 31.4445 26.7768 31.4444 26.7766L31.1605 26.9779M31.4448 26.7771C31.4448 26.7772 31.4449 26.7773 31.445 26.7774L31.1605 26.9779M17.5589 20.5253L17.1361 20.8809L17.6394 21.1087C19.709 22.0452 21.49 23.5191 22.7971 25.3771L22.8021 25.3842L22.8074 25.391C22.9089 25.5211 22.983 25.6704 23.025 25.83C23.0671 25.9896 23.0763 26.156 23.0521 26.3193C23.0279 26.4825 22.9707 26.6391 22.8842 26.7796C22.7976 26.9201 22.6834 27.0415 22.5484 27.1365C22.4135 27.2315 22.2607 27.2981 22.0992 27.3323C21.9378 27.3664 21.7711 27.3674 21.6092 27.3352C21.4474 27.3029 21.2938 27.2381 21.1577 27.1447C21.0217 27.0513 20.906 26.9313 20.8178 26.7918L20.8133 26.7848L20.8085 26.7779C19.8614 25.4289 18.6033 24.3278 17.1407 23.5676C15.6782 22.8074 14.0541 22.4105 12.4058 22.4105C10.7574 22.4105 9.13334 22.8074 7.67078 23.5676C6.20821 24.3278 4.95017 25.4289 4.00301 26.7779L4.00223 26.779C3.89089 26.9389 3.74244 27.0695 3.5696 27.1594C3.39675 27.2494 3.20467 27.2961 3.00982 27.2955L3.00769 27.2955C2.7578 27.2963 2.51397 27.2186 2.31067 27.0733L2.30899 27.0721C2.04548 26.8861 1.8665 26.6031 1.81132 26.2853C1.75615 25.9676 1.8292 25.641 2.01445 25.3771C3.32155 23.5191 5.10249 22.0452 7.17211 21.1087L7.67543 20.8809L7.25267 20.5253C5.99624 19.4683 5.09523 18.0506 4.67177 16.4642C4.24831 14.8779 4.32291 13.1997 4.88543 11.6572C5.44796 10.1147 6.47121 8.78244 7.81646 7.84112C9.16171 6.8998 10.7639 6.39491 12.4058 6.39491C14.0476 6.39491 15.6498 6.8998 16.9951 7.84112C18.3403 8.78244 19.3636 10.1147 19.9261 11.6572C20.4886 13.1997 20.5632 14.8779 20.1398 16.4642C19.7163 18.0506 18.8153 19.4683 17.5589 20.5253ZM7.77568 11.3158C7.1638 12.2315 6.83721 13.3082 6.83721 14.4095C6.83721 15.8864 7.42389 17.3028 8.4682 18.3471C9.51251 19.3914 10.9289 19.9781 12.4058 19.9781C13.5071 19.9781 14.5837 19.6515 15.4995 19.0396C16.4152 18.4277 17.129 17.558 17.5504 16.5405C17.9719 15.523 18.0822 14.4033 17.8673 13.3231C17.6525 12.2429 17.1221 11.2507 16.3433 10.4719C15.5645 9.69317 14.5723 9.16282 13.4921 8.94795C12.4119 8.73309 11.2923 8.84336 10.2748 9.26483C9.25725 9.68631 8.38756 10.4 7.77568 11.3158Z" fill="#4CAF4F" stroke="#4CAF4F" stroke-width="0.696069"/>
</g>
</g>
</g>
</g>
<defs>
<filter id="filter0_d_0_1" x="-690" y="-1534" width="1282.34" height="3326" filterUnits="userSpaceOnUse" color-interpolation-filters="sRGB">
<feFlood flood-opacity="0" result="BackgroundImageFix"/>
<feColorMatrix in="SourceAlpha" type="matrix" values="0 0 0 0 0 0 0 0 0 0 0 0 0 0 0 0 0 0 127 0" result="hardAlpha"/>
<feOffset dx="-24" dy="-28"/>
<feGaussianBlur stdDeviation="70"/>
<feComposite in2="hardAlpha" operator="out"/>
<feColorMatrix type="matrix" values="0 0 0 0 0 0 0 0 0 0 0 0 0 0 0 0 0 0 0.1 0"/>
<feBlend mode="normal" in2="BackgroundImageFix" result="effect1_dropShadow_0_1"/>
<feBlend mode="normal" in="SourceGraphic" in2="effect1_dropShadow_0_1" result="shape"/>
</filter>
<clipPath id="clip0_0_1">
<rect width="1002.34" height="3046" fill="white" transform="translate(-526 -1366)"/>
</clipPath>
<clipPath id="clip1_0_1">
<rect width="375.878" height="113.843" fill="white" transform="translate(0.921875 -4.48438)"/>
</clipPath>
<clipPath id="clip2_0_1">
<rect width="375.878" height="43" fill="white" transform="translate(0.921875 -4.48438)"/>
</clipPath>
<clipPath id="clip3_0_1">
<rect width="33.4113" height="33.4113" fill="white" transform="translate(0.921875 0.3125)"/>
</clipPath>
</defs>
</svg>
