<svg width="37" height="14" viewBox="0 0 37 14" fill="none" xmlns="http://www.w3.org/2000/svg">
<g id="Logo" clip-path="url(#clip0_20_1027)">
<path id="Vector" d="M8.81824 0C7.40471 0 6.04909 0.561519 5.04958 1.56103L1.7876 4.82302C0.788082 5.82253 0.226562 7.17815 0.226562 8.59168C0.226562 11.5352 2.61275 13.9214 5.55627 13.9214C6.9698 13.9214 8.32542 13.3598 9.32493 12.3603L11.5813 10.104C11.5813 10.104 11.5813 10.1041 11.5813 10.104L18.1555 3.52981C18.6328 3.05245 19.2803 2.78428 19.9554 2.78428C21.0856 2.78428 22.0438 3.52091 22.376 4.54026L24.4508 2.46546C23.5043 0.983008 21.8446 0 19.9554 0C18.5418 0 17.1862 0.561519 16.1867 1.56103L7.35617 10.3916C6.87881 10.8689 6.23137 11.1371 5.55627 11.1371C4.15046 11.1371 3.01084 9.99751 3.01084 8.59168C3.01084 7.91658 3.27902 7.26915 3.75638 6.79178L7.01834 3.52981C7.49571 3.05245 8.14315 2.78428 8.81824 2.78428C9.94852 2.78428 10.9067 3.52094 11.2389 4.54033L13.3137 2.46551C12.3672 0.983036 10.7076 0 8.81824 0Z" fill="#394149"/>
<path id="Vector_2" d="M18.4905 10.3916C18.0131 10.8689 17.3657 11.1371 16.6906 11.1371C15.5605 11.1371 14.6024 10.4007 14.2701 9.38148L12.1953 11.4562C13.1419 12.9385 14.8014 13.9214 16.6906 13.9214C18.1041 13.9214 19.4597 13.3598 20.4592 12.3603L29.2898 3.52981C29.7671 3.05245 30.4146 2.78428 31.0897 2.78428C32.4955 2.78428 33.6351 3.9239 33.6351 5.32971C33.6351 6.00481 33.3669 6.65224 32.8895 7.12961L29.6276 10.3916C29.1502 10.8689 28.5028 11.1371 27.8277 11.1371C26.6975 11.1371 25.7393 10.4005 25.4071 9.38125L23.3323 11.4561C24.2788 12.9384 25.9385 13.9214 27.8277 13.9214C29.2412 13.9214 30.5968 13.3598 31.5963 12.3603L34.8583 9.09837C35.8578 8.09886 36.4194 6.74324 36.4194 5.32971C36.4194 2.38619 34.0332 0 31.0897 0C29.6761 0 28.3205 0.561519 27.321 1.56103L18.4905 10.3916Z" fill="#394149"/>
</g>
<defs>
<clipPath id="clip0_20_1027">
<rect width="36.1956" height="13.9214" fill="white" transform="translate(0.226562)"/>
</clipPath>
</defs>
</svg>
