<svg width="29" height="20" viewBox="0 0 29 20" fill="none" xmlns="http://www.w3.org/2000/svg">
<g id="Logo" clip-path="url(#clip0_20_1023)">
<path id="Vector" d="M27.0781 1.49356C27.0781 1.81792 27.3443 2.08087 27.6727 2.08087H28.2672C28.5956 2.08087 28.8618 1.81792 28.8618 1.49356C28.8618 1.1692 28.5956 0.90625 28.2672 0.90625H27.6727C27.3443 0.90625 27.0781 1.1692 27.0781 1.49356Z" fill="#212326"/>
<path id="Vector_2" d="M9.83326 19.7001H12.7215L11.8807 18.8695C11.6577 18.6493 11.3552 18.5255 11.0399 18.5255H9.83326C5.23613 18.5255 1.50943 14.8443 1.50943 10.3032C1.50943 5.76212 5.23613 2.08087 9.83326 2.08087H19.3462C23.9433 2.08087 27.67 5.76212 27.67 10.3032C27.67 14.8443 23.9433 18.5255 19.3462 18.5255H15.7876C15.3145 18.5255 14.8609 18.3399 14.5263 18.0095L13.5413 17.0364C12.9838 16.4857 12.2276 16.1763 11.4391 16.1763H9.83326C6.54958 16.1763 3.88767 13.5468 3.88767 10.3032C3.88767 7.05955 6.54958 4.4301 9.83326 4.4301H19.3462C22.6299 4.4301 25.2918 7.05955 25.2918 10.3032C25.2918 13.5468 22.6299 16.1763 19.3462 16.1763H17.0612C16.5882 16.1763 16.1345 15.9906 15.8 15.6602L14.8149 14.6871C14.2574 14.1364 13.5012 13.827 12.7128 13.827H9.83326C7.86308 13.827 6.26591 12.2493 6.26591 10.3032C6.26591 8.35703 7.86308 6.77934 9.83326 6.77934H19.3462C21.3164 6.77934 22.9136 8.35703 22.9136 10.3032C22.9136 12.2256 21.3551 13.7885 19.4181 13.8263L19.4177 13.827H18.5476C18.0746 13.827 17.6209 13.6414 17.2864 13.311L16.3013 12.3379C15.8438 11.886 15.2526 11.5966 14.6196 11.5073L14.5897 11.4778H9.83326C9.17654 11.4778 8.64414 10.9519 8.64414 10.3032C8.64414 9.65447 9.17654 9.12857 9.83326 9.12857H19.3462C20.0029 9.12857 20.5353 9.65447 20.5353 10.3032C20.5353 10.9519 20.0029 11.4778 19.3462 11.4778H16.968L17.8088 12.3084C18.0318 12.5287 18.3343 12.6524 18.6496 12.6524H19.3462C20.6597 12.6524 21.7244 11.6006 21.7244 10.3032C21.7244 9.00575 20.6597 7.95395 19.3462 7.95395H9.83326C8.51981 7.95395 7.45502 9.00575 7.45502 10.3032C7.45502 11.6006 8.51981 12.6524 9.83326 12.6524H14.1992C14.6723 12.6524 15.1259 12.8381 15.4605 13.1685L16.4456 14.1416C17.0031 14.6923 17.7592 15.0017 18.5476 15.0017H19.6435V14.9926C22.1319 14.8411 24.1027 12.7994 24.1027 10.3032C24.1027 7.70832 21.9731 5.60472 19.3462 5.60472H9.83326C7.20636 5.60472 5.07679 7.70832 5.07679 10.3032C5.07679 12.8981 7.20636 15.0017 9.83326 15.0017H12.7128C13.1859 15.0017 13.6395 15.1873 13.9741 15.5177L14.9592 16.4908C15.5167 17.0415 16.2728 17.3509 17.0612 17.3509H19.3462C23.2866 17.3509 26.4809 14.1955 26.4809 10.3032C26.4809 6.41084 23.2866 3.25548 19.3462 3.25548H9.83326C5.89286 3.25548 2.69855 6.41084 2.69855 10.3032C2.69855 14.1955 5.89286 17.3509 9.83326 17.3509H11.4391C11.9122 17.3509 12.3659 17.5365 12.7004 17.8669L13.6855 18.84C14.243 19.3907 14.9992 19.7001 15.7876 19.7001H19.3462C24.6001 19.7001 28.8592 15.493 28.8592 10.3032C28.8592 5.1134 24.6001 0.90625 19.3462 0.90625L9.83326 0.906252C4.5794 0.906252 0.320312 5.1134 0.320313 10.3032C0.320313 15.493 4.57941 19.7001 9.83326 19.7001Z" fill="#212326"/>
</g>
<defs>
<clipPath id="clip0_20_1023">
<rect width="28.5388" height="18.7939" fill="white" transform="translate(0.320312 0.90625)"/>
</clipPath>
</defs>
</svg>
