<svg width="33" height="21" viewBox="0 0 33 21" fill="none" xmlns="http://www.w3.org/2000/svg">
<g id="Logo" clip-path="url(#clip0_20_1007)">
<path id="Vector" d="M30.7847 2.6886C30.7847 2.71213 30.7847 2.74155 30.7785 2.75921C30.7479 2.98869 30.7479 3.21817 30.7662 3.45354C30.7785 3.51238 30.7908 3.57122 30.8399 3.6183C30.9195 3.70656 31.0421 3.68891 31.0912 3.58299C31.1157 3.53004 31.1157 3.47708 31.1035 3.42412C31.0421 3.20052 31.0299 2.96515 31.0238 2.73567C31.0238 2.7239 31.0238 2.70625 31.0238 2.6886C31.0912 2.68271 31.1525 2.67682 31.2077 2.67682C31.2506 2.67094 31.2874 2.66506 31.3181 2.6474C31.41 2.60033 31.41 2.5003 31.3119 2.45323C31.2751 2.43557 31.2261 2.42969 31.1832 2.42969C31.0299 2.43557 30.8766 2.43557 30.7233 2.43557C30.6682 2.43557 30.613 2.44146 30.5578 2.44734C30.5271 2.45323 30.4904 2.45323 30.4659 2.47088C30.4229 2.48853 30.3984 2.51795 30.3984 2.55914C30.4046 2.60033 30.4229 2.62387 30.4659 2.64152C30.4904 2.65917 30.521 2.66506 30.5517 2.66506C30.6252 2.67094 30.705 2.68271 30.7847 2.6886ZM32.4706 2.95927C32.4706 2.96515 32.4767 2.97104 32.4767 2.97104C32.5013 3.12991 32.5258 3.2829 32.5442 3.43589C32.5504 3.48884 32.5565 3.53592 32.5933 3.57711C32.6729 3.67714 32.7956 3.66537 32.8507 3.55946C32.8753 3.5065 32.8814 3.45354 32.8691 3.3947C32.8324 3.21817 32.8139 3.04164 32.7772 2.871C32.7526 2.76509 32.722 2.66506 32.6914 2.57091C32.6729 2.51207 32.63 2.47088 32.5565 2.46499C32.4829 2.45323 32.4277 2.48853 32.3971 2.54149C32.3603 2.58856 32.3296 2.63564 32.3051 2.6886C32.2622 2.78274 32.2254 2.87689 32.1764 2.96515C32.1702 2.98869 32.1641 3.00634 32.1518 3.02399C32.1457 3.01222 32.1396 3.00634 32.1396 3.00634C32.0599 2.85924 31.9863 2.71213 31.9066 2.57091C31.8943 2.55914 31.8882 2.54737 31.8821 2.5356C31.8453 2.48265 31.8024 2.45323 31.7349 2.45323C31.6736 2.45911 31.6246 2.49442 31.5939 2.54737C31.5817 2.57091 31.5817 2.58856 31.5755 2.6121C31.551 2.80039 31.5203 2.98869 31.4958 3.17698C31.4836 3.2829 31.4774 3.38881 31.4774 3.49473C31.4713 3.51826 31.4774 3.54769 31.4897 3.57122C31.502 3.61829 31.5388 3.64772 31.5878 3.6536C31.6491 3.65949 31.692 3.64183 31.7104 3.59476C31.7288 3.55946 31.7349 3.53004 31.7411 3.50062C31.7656 3.3947 31.784 3.29467 31.8024 3.19464C31.8146 3.13579 31.8208 3.08872 31.8392 3.02399C31.8514 3.04753 31.8637 3.06518 31.876 3.08283C31.9311 3.15345 31.9863 3.22406 32.0537 3.2829C32.1212 3.32997 32.1764 3.32409 32.2315 3.27113C32.2438 3.25936 32.2499 3.25348 32.2622 3.24171C32.3174 3.15933 32.3848 3.07695 32.44 2.99457C32.4523 2.9828 32.4584 2.97104 32.4706 2.95927Z" fill="#3A3B7B"/>
<path id="Vector_2" d="M18.3381 2.81012C18.2955 2.92195 18.2874 3.00251 18.307 3.06947C18.3288 3.16053 18.3852 3.19034 18.4617 3.16718C19.1818 2.99628 20.7609 3.48138 21.3455 3.61659C21.4834 3.64498 21.5956 3.47415 21.5015 3.321C21.3642 3.17267 19.7858 2.53765 19.1836 2.50303C18.9475 2.49023 18.5255 2.43213 18.3381 2.81012Z" fill="#3A3B7B"/>
<path id="Vector_3" d="M24.5124 0.748384C24.5891 0.790899 24.632 0.831454 24.6532 0.876767C24.6847 0.936206 24.6681 0.97733 24.6151 0.998315C24.1391 1.22129 23.5057 2.18123 23.25 2.5123C23.188 2.58846 23.045 2.54421 23.0234 2.41896C23.0279 2.27735 23.5894 1.2356 23.9027 0.951859C24.0259 0.841079 24.2293 0.623716 24.5124 0.748384Z" fill="#3A3B7B"/>
<path id="Vector_4" d="M20.725 0.27966C20.8172 0.212965 20.913 0.189593 20.9619 0.232936C21.6801 0.822436 22.061 1.75596 22.2968 2.61058C22.3057 2.63049 22.3062 2.65907 22.2991 2.68887C22.2962 2.71435 22.2768 2.74126 22.246 2.76208C22.2131 2.78507 22.1848 2.79207 22.1715 2.77226C21.8567 2.36135 20.0589 0.762575 20.725 0.27966Z" fill="#3A3B7B"/>
<path id="Vector_5" d="M5.51267 10.5013C5.6848 10.3783 5.87193 10.2759 6.06996 10.1964C6.27714 10.1396 6.49796 10.149 6.69907 10.2233C6.90013 10.2976 7.07057 10.4327 7.18452 10.6082C7.28645 10.7833 7.32631 10.9854 7.29818 11.1842C7.27004 11.3829 7.1754 11.5674 7.02847 11.7101C6.91457 11.8257 6.78525 11.9264 6.64397 12.0096C6.01425 12.4001 5.37891 12.7691 4.74362 13.1596C4.61362 13.2573 4.47572 13.345 4.33122 13.4217C4.11144 13.5269 3.86026 13.555 3.62111 13.5013C3.38198 13.4476 3.16991 13.3154 3.0216 13.1275C2.91073 12.9945 2.81716 12.849 2.74296 12.6942C2.14109 11.4801 1.51693 10.2713 0.937355 9.03571C0.669856 8.50087 0.452516 7.88575 0.240748 7.29205C0.149127 7.11955 0.131236 6.91957 0.190883 6.73459C0.250531 6.54962 0.383011 6.39428 0.560144 6.3016C0.737278 6.20893 0.945085 6.18627 1.13938 6.23838C1.33367 6.2905 1.49911 6.41331 1.60052 6.58067C1.91223 6.97825 2.18815 7.40055 2.42531 7.84299C3.02717 8.91271 3.60118 9.98243 4.18076 11.0201C4.2145 11.0774 4.25172 11.1328 4.29221 11.1859C4.72844 11.0099 5.13874 10.7797 5.51267 10.5013Z" fill="#3A3B7B"/>
<path id="Vector_6" d="M11.7342 10.1246C10.3577 11.6704 8.05057 11.2799 6.89143 9.29022C6.06663 7.87817 5.92174 5.54613 7.71622 4.07524C8.09941 3.7673 8.55761 3.55753 9.04811 3.46549C9.64951 3.38274 10.2628 3.48457 10.8002 3.75643C11.3377 4.02829 11.7719 4.45626 12.0408 4.97918C13.0216 6.69077 12.8822 8.87302 11.7342 10.1246ZM11.1769 6.5196C11.0307 6.099 10.7373 5.73992 10.3466 5.50333C10.1255 5.35207 9.85678 5.27853 9.58581 5.29509C9.31478 5.31165 9.05802 5.41731 8.85864 5.59426C8.06174 6.27356 7.89452 7.88353 8.4741 8.84095C8.54799 8.99707 8.65646 9.1358 8.79204 9.24747C8.92762 9.35913 9.08699 9.44102 9.25898 9.48736C9.43097 9.53374 9.61142 9.54347 9.78775 9.51589C9.96409 9.48828 10.132 9.42405 10.2797 9.32766C10.7117 9.0062 11.0286 8.56357 11.1864 8.06131C11.3443 7.559 11.3351 7.022 11.1603 6.52497L11.1769 6.5196Z" fill="#3A3B7B"/>
<path id="Vector_7" d="M17.3557 7.19273C17.2148 7.22182 17.0692 7.22356 16.9276 7.19783C16.786 7.17209 16.6511 7.11947 16.531 7.04299C16.4258 6.98528 16.3354 6.90595 16.266 6.81067C16.1967 6.71538 16.1502 6.60656 16.13 6.49196C16.1097 6.3774 16.1162 6.25996 16.1489 6.14806C16.1816 6.03617 16.2398 5.93262 16.3192 5.84486C16.4575 5.66851 16.6539 5.54225 16.8765 5.48651C17.4575 5.32466 18.0557 5.22597 18.6598 5.19235C18.7925 5.17753 18.927 5.18831 19.0553 5.22405C19.1836 5.25983 19.3032 5.31979 19.407 5.40054C19.5108 5.48124 19.5968 5.58106 19.6599 5.69411C19.7229 5.80715 19.7619 5.93115 19.7744 6.05883C19.9485 6.68597 19.9676 7.34353 19.8301 7.97903C19.3285 10.0329 17.6009 10.7389 15.6616 10.081C15.1172 9.90514 14.6399 9.57739 14.2907 9.13968C13.8249 8.61255 13.4947 7.98783 13.3265 7.31578C13.1904 6.71731 13.2053 6.09631 13.3701 5.50454C13.5349 4.91277 13.8448 4.3674 14.2739 3.914C14.6812 3.4212 15.2098 3.03336 15.8121 2.78542C16.1926 2.58409 16.638 2.52684 17.0604 2.62496C17.1562 2.65041 17.2432 2.70001 17.3123 2.7686C17.3814 2.83719 17.4302 2.92228 17.4535 3.01505C17.4768 3.10781 17.4738 3.20488 17.4449 3.29617C17.4159 3.38746 17.3621 3.46966 17.2889 3.53424C17.1497 3.65515 16.9985 3.76264 16.8375 3.85516C16.342 4.15798 15.9109 4.54819 15.5668 5.00512C15.3413 5.3008 15.186 5.64034 15.1119 5.99979C15.0377 6.35924 15.0466 6.72992 15.1378 7.08579C15.2641 7.57099 15.5446 8.00651 15.9402 8.33201C17.1662 9.40177 18.7601 8.36944 18.4814 6.90926C18.0747 7.00555 17.718 7.10717 17.3557 7.19273Z" fill="#3A3B7B"/>
<path id="Vector_8" d="M24.8442 10.2113C23.0331 11.2811 20.9711 10.2113 20.5197 7.96489C20.1909 6.36029 20.8151 4.11382 22.9997 3.25803C23.4644 3.07987 23.9686 3.01731 24.4653 3.07617C25.0621 3.18102 25.6095 3.463 26.0304 3.88235C26.4513 4.3017 26.7246 4.83725 26.8114 5.41356C27.1793 7.32302 26.3433 9.36089 24.8442 10.2113ZM25.474 6.61165C25.4734 6.16733 25.3097 5.73736 25.0115 5.3975C24.852 5.18729 24.6216 5.03668 24.3594 4.9713C24.0972 4.90597 23.8195 4.92992 23.5736 5.03916C22.5928 5.44563 21.9018 6.92187 22.1526 8.00769C22.1717 8.17808 22.2294 8.34241 22.3216 8.48918C22.4138 8.63594 22.5383 8.7616 22.6864 8.85739C22.8345 8.95313 23.0026 9.01672 23.1789 9.04365C23.3553 9.07053 23.5357 9.06016 23.7074 9.01323C24.2258 8.8394 24.6747 8.51455 24.9914 8.08399C25.3081 7.65343 25.4769 7.13869 25.474 6.61165Z" fill="#3A3B7B"/>
<path id="Vector_9" d="M28.6387 10.6595C28.6114 10.8553 28.5042 11.0326 28.3406 11.1525C28.177 11.2723 27.9705 11.3249 27.7666 11.2987C27.5626 11.2724 27.3779 11.1695 27.253 11.0125C27.1281 10.8555 27.0733 10.6573 27.1006 10.4616C27.128 10.2658 27.2352 10.0885 27.3988 9.96864C27.5623 9.84876 27.7688 9.79618 27.9728 9.82243C28.1767 9.84867 28.3615 9.95157 28.4864 10.1086C28.6113 10.2656 28.6661 10.4637 28.6387 10.6595ZM28.1539 3.44409C28.2599 3.28873 28.4154 3.17041 28.5972 3.10679C28.7789 3.04318 28.9773 3.03766 29.1626 3.09108C29.351 3.13632 29.5174 3.2423 29.6341 3.39128C29.7508 3.54026 29.8105 3.72318 29.8035 3.90943C29.7789 4.20817 29.7323 4.50487 29.6642 4.7973C29.4802 5.78683 29.3019 6.77631 29.1069 7.75515C29.0177 8.14561 28.9007 8.52001 28.7725 8.9158C28.7279 9.03953 28.6534 9.15133 28.5552 9.24208C28.4941 9.31034 28.4161 9.36269 28.3283 9.3943C28.2405 9.42595 28.1459 9.43582 28.0531 9.42302C27.9603 9.41022 27.8724 9.37517 27.7975 9.32112C27.7225 9.26704 27.6631 9.1957 27.6245 9.11371C27.5582 8.96663 27.5222 8.80858 27.5186 8.64838C27.5186 7.98513 27.5186 7.31656 27.5632 6.64794C27.6389 5.69379 27.7879 4.74628 28.009 3.81315C28.035 3.68813 28.0841 3.56858 28.1539 3.46014V3.44409Z" fill="#3A3B7B"/>
<path id="Vector_10" fill-rule="evenodd" clip-rule="evenodd" d="M3.16097 14.9574C3.09517 15.0984 3.07712 15.2556 3.10928 15.4069C3.13067 15.6062 3.17765 15.8024 3.24916 15.9907C3.33843 16.2214 3.43833 16.4495 3.56151 16.7307C3.58984 16.7953 3.61944 16.8629 3.65042 16.9339C3.81653 17.3148 4.02495 17.8016 4.30296 18.506C4.38165 18.7061 4.45152 18.9079 4.52189 19.111C4.55032 19.1931 4.57884 19.2755 4.60804 19.358C4.71271 19.6514 4.89282 19.915 5.13154 20.124C5.23291 20.2388 5.36737 20.3225 5.51815 20.3643C5.67186 20.407 5.83534 20.4043 5.98742 20.3566C6.1395 20.3088 6.27307 20.2182 6.3708 20.0966C6.46661 19.9774 6.52358 19.8337 6.53466 19.6836C6.59681 19.3912 6.5756 19.088 6.47315 18.806C6.31056 18.338 6.12534 17.8692 5.91176 17.4107L5.91078 17.4087C5.55941 16.6913 5.20226 15.979 4.8282 15.2663L4.8254 15.2613C4.7159 15.0756 4.57359 14.9096 4.40487 14.7708C4.29534 14.6469 4.14426 14.5633 3.97741 14.5345C3.80701 14.5051 3.63126 14.5347 3.48155 14.6182C3.33992 14.6958 3.22765 14.8146 3.16097 14.9574Z" fill="#3A3B7B"/>
<path id="Vector_11" fill-rule="evenodd" clip-rule="evenodd" d="M8.5209 13.1903C7.96997 13.0533 7.3946 13.0334 6.83489 13.1318C6.40137 13.1728 5.97499 13.2688 5.67892 13.4589C5.52834 13.5556 5.40659 13.6799 5.33887 13.8378C5.27077 13.9966 5.26208 14.1781 5.31788 14.3805C5.41977 14.751 5.55208 15.1114 5.68392 15.4705L5.70528 15.5287L5.70579 15.53C6.10277 16.5734 6.50353 17.6133 6.90794 18.6497C6.9551 18.813 7.02179 18.9705 7.10666 19.1191L7.10825 19.1219C7.22037 19.3065 7.36418 19.4716 7.5336 19.6103C7.61833 19.6865 7.72311 19.7393 7.83673 19.7629C7.95146 19.7866 8.07078 19.7798 8.18169 19.7429C8.29264 19.706 8.39088 19.6407 8.46575 19.5539C8.5394 19.4685 8.58763 19.3656 8.60535 19.2562C8.67844 18.9588 8.65503 18.647 8.53819 18.3628C8.50173 18.2671 8.47313 18.1694 8.44299 18.0665C8.43294 18.0321 8.42275 17.9972 8.412 17.9617C9.3377 17.6144 10.3227 17.1474 10.669 16.061C10.8047 15.6856 10.816 15.2791 10.7014 14.8972C10.5867 14.5149 10.3514 14.1761 10.0279 13.9273C9.58755 13.5791 9.07322 13.3275 8.5209 13.1903ZM6.99379 14.5228C7.01202 14.5177 7.03039 14.513 7.0488 14.5087C7.65146 14.4178 8.26805 14.5389 8.78505 14.8498C9.01289 15.0019 9.10622 15.1708 9.12225 15.3334C9.13879 15.5008 9.07537 15.6822 8.94797 15.8566C8.70723 16.186 8.26791 16.4497 7.87108 16.4988C7.58178 15.8594 7.288 15.194 6.99379 14.5228Z" fill="#3A3B7B"/>
<path id="Vector_12" d="M12.1977 12.0262C12.8538 11.7354 13.6665 11.6852 14.3025 11.8897C14.4626 11.9344 14.6016 12.0313 14.6956 12.1636C14.7889 12.2952 14.832 12.4537 14.8176 12.6121C14.8167 12.715 14.7904 12.8162 14.7409 12.9075C14.6905 13.0004 14.6175 13.0804 14.5282 13.1406C14.4388 13.2007 14.3357 13.2394 14.2275 13.2532C14.1192 13.267 14.0092 13.2557 13.9065 13.22L13.8987 13.2173L13.8914 13.2136C13.8388 13.1872 13.783 13.1673 13.7253 13.1544L13.7217 13.1536C13.2743 13.0396 12.8523 13.2285 12.6982 13.4607C12.6247 13.5714 12.6156 13.6832 12.6768 13.7849C12.7424 13.8937 12.9032 14.0159 13.2286 14.103C13.3181 14.1266 13.4098 14.1493 13.5029 14.1724C13.7602 14.2364 14.0276 14.3028 14.2862 14.3949L14.2872 14.3953C15.4802 14.8309 15.9244 15.7332 15.7724 16.5818C15.6219 17.421 14.8917 18.1848 13.7935 18.365C13.3939 18.45 12.978 18.4334 12.5871 18.3169C12.1952 18.2001 11.8419 17.9869 11.5624 17.6984L11.5551 17.6909C11.4668 17.5822 11.4075 17.4545 11.3812 17.3191C11.357 17.1968 11.3697 17.0705 11.4179 16.9549C11.4657 16.84 11.5467 16.7406 11.6511 16.6682C11.7615 16.586 11.8945 16.5368 12.0337 16.5265C12.1725 16.5163 12.3113 16.5452 12.4331 16.6097C12.5548 16.6661 12.668 16.7381 12.7696 16.8237L12.7716 16.8253C12.9513 16.9831 13.1688 17.0242 13.3773 16.9861C13.5889 16.9475 13.7878 16.8273 13.9158 16.6679C14.0429 16.5095 14.094 16.3213 14.0334 16.1386C13.9724 15.9546 13.7892 15.7484 13.3866 15.576C13.2813 15.5331 13.1722 15.4986 13.0587 15.4649C13.0281 15.4558 12.9969 15.4468 12.9654 15.4376C12.8815 15.4131 12.7951 15.3879 12.7104 15.3602C12.6521 15.3411 12.5942 15.323 12.537 15.3051C12.3803 15.2561 12.2277 15.2084 12.0807 15.1444C11.7609 15.0399 11.4846 14.8393 11.2929 14.5721C11.1005 14.3039 11.0036 13.9832 11.0168 13.6578C11.0178 12.8649 11.5382 12.3187 12.1977 12.0262Z" fill="#3A3B7B"/>
<path id="Vector_13" d="M20.5135 11.9425C20.3862 11.8828 20.2456 11.8545 20.1041 11.8601C19.9627 11.8657 19.8249 11.9049 19.7032 11.9744C19.5823 12.0434 19.4811 12.14 19.4086 12.2557C19.3421 12.3531 19.296 12.462 19.2731 12.5764C19.2501 12.6907 19.2507 12.8081 19.2747 12.9221C19.2984 13.0687 19.3246 13.2111 19.3506 13.3517C19.3935 13.5842 19.4353 13.8115 19.4629 14.0433L19.4639 14.0492C19.5267 14.4127 19.5595 14.7803 19.5625 15.1487L19.5627 15.1539C19.5842 15.5518 19.443 15.9419 19.1693 16.2414L19.165 16.2468C19.0759 16.3563 18.9569 16.4399 18.8211 16.4882C18.6854 16.5365 18.5384 16.5476 18.3964 16.5202C18.2545 16.4929 18.1233 16.4282 18.0175 16.3334C17.9117 16.2385 17.8354 16.117 17.7973 15.983C17.716 15.7005 17.6689 15.41 17.6569 15.1172L17.7958 12.9947C17.7979 12.967 17.8002 12.9386 17.8026 12.9099C17.8079 12.8454 17.8133 12.7798 17.8156 12.7185C17.8188 12.6284 17.816 12.5357 17.7942 12.448C17.7718 12.3584 17.7292 12.2731 17.6537 12.2005C17.5789 12.1286 17.4779 12.0755 17.3509 12.0394C17.1212 11.9756 16.927 11.9776 16.7651 12.0436C16.6032 12.1095 16.4922 12.2319 16.4137 12.3733C16.3358 12.5135 16.2858 12.6795 16.2479 12.8457C16.2198 12.9691 16.1972 13.0986 16.1758 13.2219C16.1684 13.2644 16.1611 13.3061 16.1538 13.3466L16.1536 13.3478C16.0388 14.0238 16.0046 14.7102 16.0517 15.3937C16.0605 15.7631 16.1408 16.1277 16.2885 16.4688C16.4551 16.9091 16.7569 17.2905 17.154 17.5628C17.5519 17.8356 18.0268 17.986 18.5158 17.9939C19.0047 18.0018 19.4847 17.867 19.892 17.6073C20.2987 17.3479 20.6139 16.9763 20.7959 16.5414C21.0505 15.9874 21.17 15.3849 21.1453 14.7799C21.1304 14.3382 21.1053 13.8931 21.0804 13.4503C21.0682 13.233 21.056 13.0163 21.045 12.8008C21.0395 12.5848 20.9653 12.3755 20.8323 12.2012C20.75 12.0909 20.6404 12.002 20.5135 11.9425Z" fill="#3A3B7B"/>
<path id="Vector_14" d="M25.0193 15.2653C25.0064 15.281 24.9928 15.2973 24.9785 15.3142C24.8751 14.7413 24.7792 14.1686 24.6831 13.595C24.6487 13.3892 24.6141 13.1825 24.5792 12.9764L24.5753 12.9534L24.5626 12.9336C24.5386 12.8962 24.5362 12.8595 24.5362 12.7814V12.7723L24.5348 12.7634C24.5088 12.6019 24.4327 12.4517 24.3165 12.3323C24.2006 12.2133 24.05 12.1304 23.8845 12.0944C23.7191 12.0553 23.5454 12.0639 23.3852 12.1193C23.2253 12.1744 23.086 12.2736 22.9846 12.4044C22.9003 12.5047 22.8312 12.616 22.7794 12.7349C22.6618 12.9911 22.5433 13.2479 22.4244 13.5054L22.4223 13.5099C22.1255 14.1528 21.8267 14.8 21.5365 15.4522L21.5356 15.4544C21.3575 15.8773 21.2105 16.3229 21.064 16.7672C21.0347 16.8559 21.0055 16.9445 20.976 17.0329C20.9231 17.1731 20.8999 17.3221 20.9079 17.4709C20.8983 17.6042 20.9315 17.7372 21.0032 17.8518C21.0763 17.9688 21.1858 18.0608 21.3162 18.115C21.4545 18.1732 21.609 18.1855 21.7554 18.1501C21.9015 18.1147 22.0313 18.0338 22.1242 17.92C22.2429 17.7799 22.3451 17.627 22.4283 17.4651C22.6741 16.9825 22.909 16.4941 23.1428 16.0078C23.2333 15.8197 23.3212 15.6513 23.4213 15.4678C23.4281 15.4904 23.4351 15.5125 23.4424 15.5346C23.5472 15.9775 23.7241 16.4018 23.9667 16.7919C24.0126 16.8745 24.0765 16.9467 24.1541 17.0035C24.2326 17.0611 24.3232 17.1014 24.4196 17.1219C24.516 17.1425 24.616 17.1425 24.7124 17.1222C24.8088 17.1019 24.8997 17.0615 24.9782 17.0043L25.1337 16.8926L26.3406 15.9169L26.2692 16.3534C26.1713 16.9534 26.074 17.5485 25.9708 18.1436C25.9032 18.4074 25.9033 18.683 25.971 18.9467C26.0004 19.0951 26.0752 19.2317 26.1858 19.3392C26.2974 19.4475 26.4404 19.5211 26.5961 19.5504C26.7518 19.5797 26.9131 19.5635 27.0591 19.5037C27.2029 19.4449 27.3253 19.3464 27.4108 19.2209C27.6098 18.984 27.7337 18.6971 27.7677 18.3944C27.8189 17.9671 27.8768 17.5338 27.9347 17.1007C28.0014 16.6016 28.0681 16.1025 28.1244 15.613L28.1246 15.6115C28.1788 15.0757 28.205 14.5377 28.2032 13.9994C28.2151 13.8293 28.1709 13.6598 28.0769 13.515C27.9826 13.3696 27.8428 13.2566 27.6776 13.192C27.5058 13.117 27.3135 13.097 27.129 13.1349C26.9456 13.1725 26.7797 13.2653 26.6552 13.3996C26.4326 13.5972 26.2237 13.8087 26.03 14.0326L26.0287 14.0341C25.8172 14.287 25.6072 14.5449 25.3985 14.8011C25.2716 14.9569 25.1451 15.1123 25.0193 15.2653Z" fill="#3A3B7B"/>
</g>
<defs>
<clipPath id="clip0_20_1007">
<rect width="32.7153" height="20.186" fill="white" transform="translate(0.15625 0.210938)"/>
</clipPath>
</defs>
</svg>
