<svg width="28" height="20" viewBox="0 0 28 20" fill="none" xmlns="http://www.w3.org/2000/svg">
<g id="Logo" clip-path="url(#clip0_20_1000)">
<path id="Vector" fill-rule="evenodd" clip-rule="evenodd" d="M7.04455 3.075L0.09375 9.95591C1.48404 11.3322 3.07222 12.4922 4.8038 13.3996C5.28242 14.6565 6.03264 15.8351 7.05444 16.8466C10.8988 20.6523 17.1316 20.6523 20.9758 16.8466C21.9977 15.8351 22.7479 14.6565 23.2265 13.3996C24.958 12.4922 26.5463 11.3322 27.9365 9.95591L20.9914 3.08059C20.9862 3.07545 20.9811 3.07031 20.9758 3.06517C17.1316 -0.740473 10.8988 -0.740473 7.05444 3.06517C7.05115 3.06845 7.04785 3.07172 7.04455 3.075ZM20.3107 14.6411C18.2852 15.3178 16.1588 15.6644 14.0151 15.6644C11.8715 15.6644 9.74517 15.3178 7.71961 14.6411C7.93908 14.9293 8.18138 15.2059 8.44658 15.4685C11.522 18.513 16.5083 18.513 19.5837 15.4685C19.8489 15.2059 20.0913 14.9293 20.3107 14.6411ZM8.58935 4.30549C9.11161 4.64706 9.66693 4.93935 10.248 5.17764C11.4423 5.66737 12.7224 5.91943 14.0151 5.91943C15.3079 5.91943 16.588 5.66737 17.7823 5.17764C18.3633 4.93935 18.9187 4.64706 19.441 4.30548C16.4039 1.44474 11.6264 1.44475 8.58935 4.30549Z" fill="#3B4158"/>
</g>
<defs>
<clipPath id="clip0_20_1000">
<rect width="27.8428" height="19.4899" fill="white" transform="translate(0.09375 0.210938)"/>
</clipPath>
</defs>
</svg>
