<svg width="39" height="22" viewBox="0 0 39 22" fill="none" xmlns="http://www.w3.org/2000/svg">
<g id="Logo" clip-path="url(#clip0_20_1003)">
<path id="Vector" d="M38.5855 7.94244C38.5895 7.91342 38.5895 7.88408 38.5855 7.85505C38.5893 7.8314 38.5893 7.80728 38.5855 7.78358L38.3019 5.74225C38.261 5.49803 38.1516 5.26977 37.986 5.083L37.9373 5.02739L37.8483 4.94002L32.9385 0.793827L33.0762 0.928866C32.9635 0.796694 32.8221 0.690974 32.6622 0.619494C32.5024 0.548013 32.3282 0.512588 32.1526 0.515832H30.6618C30.4194 0.511124 30.1825 0.586684 29.9893 0.730294C29.7865 0.587549 29.5423 0.512375 29.2926 0.515832H27.8018C27.6063 0.512723 27.4134 0.560294 27.2427 0.653745C27.0719 0.747195 26.9294 0.883207 26.8296 1.048C26.6756 1.28338 26.6177 1.56698 26.6675 1.8423L26.8539 3.12904C26.7304 3.06043 26.5907 3.02483 26.4488 3.02579H19.2299C18.9709 3.02738 18.7179 3.10181 18.5007 3.24024C18.2907 3.36909 18.1222 3.5536 18.0146 3.77241L17.4556 3.30379C17.2355 3.1042 16.9451 2.99602 16.6454 3.00196H5.31885C5.05893 3.0066 4.80478 3.07779 4.58159 3.20847C4.27625 3.38369 4.05247 3.66857 3.95772 4.00276L0.360454 15.798C0.293241 15.9923 0.286629 16.2019 0.341465 16.4C0.396302 16.598 0.510104 16.7756 0.668332 16.91C0.709562 16.9442 0.752853 16.9761 0.797967 17.0053C0.797967 17.0053 0.725037 16.9576 0.684527 16.9179L5.59434 21.0721C5.80203 21.2595 6.07358 21.3643 6.35587 21.3659H17.7716C18.0323 21.3593 18.2866 21.2853 18.5089 21.1515C18.6346 21.0841 18.747 20.9954 18.841 20.8893L18.8815 20.8337L18.9464 20.7543L18.995 20.6669L19.5297 21.1197C19.7344 21.2997 20.0001 21.3988 20.2751 21.3977H31.715C31.9755 21.3892 32.2293 21.3154 32.4523 21.1833C32.5752 21.1118 32.687 21.0235 32.7845 20.9211L32.825 20.8655L32.8898 20.7861C32.9243 20.7359 32.9541 20.6827 32.9789 20.6272C33.0054 20.5791 33.0271 20.5285 33.0437 20.4763L36.325 9.70578V9.61045C36.3291 9.57349 36.3291 9.53622 36.325 9.49925V9.42778C36.329 9.40408 36.329 9.37997 36.325 9.35626C36.3287 9.30604 36.3287 9.25561 36.325 9.20534H37.3783C37.4699 9.21359 37.5621 9.21359 37.6537 9.20534H37.7267C37.786 9.18801 37.8431 9.16399 37.8969 9.13387H37.9779L38.1237 9.02267L38.1885 8.97501L38.3019 8.83202V8.78441L38.3829 8.64935C38.3784 8.62309 38.3784 8.59621 38.3829 8.56995C38.3786 8.55705 38.3786 8.54312 38.3829 8.53022C38.4002 8.48365 38.4137 8.43583 38.4235 8.38723C38.4197 8.37157 38.4197 8.35523 38.4235 8.33957C38.4195 8.31592 38.4195 8.29175 38.4235 8.2681C38.4235 8.2681 38.5855 7.95831 38.5855 7.94244Z" fill="black"/>
<path id="Vector_2" d="M16.9749 3.91115C17.0179 3.94928 17.048 3.99941 17.061 4.0548C17.0741 4.11019 17.0694 4.16817 17.0479 4.22092L13.4587 16.0082C13.4135 16.1369 13.321 16.2445 13.1994 16.31C13.1005 16.3749 12.9859 16.4132 12.8672 16.4212H1.45967C1.36225 16.4166 1.26996 16.3771 1.20041 16.31C1.15903 16.2725 1.13 16.2237 1.11701 16.17C1.10402 16.1162 1.10767 16.0599 1.12749 16.0082L4.72476 4.22092C4.76621 4.0906 4.85577 3.98013 4.97592 3.91115C5.0765 3.85091 5.19049 3.81548 5.3081 3.80788H16.7156C16.8123 3.8088 16.905 3.84572 16.9749 3.91115ZM11.02 13.6333L13.167 6.59583H7.15536L5.01642 13.6333H11.02ZM27.8639 4.03028C27.9029 4.07463 27.9515 4.10979 28.0062 4.13317C28.0609 4.15655 28.1203 4.16754 28.1799 4.16531H29.6626C29.7191 4.16585 29.7747 4.15228 29.8243 4.12588C29.8739 4.09947 29.9158 4.0611 29.9461 4.0144C29.9725 3.97792 29.9911 3.93662 30.0008 3.89295C30.0105 3.84929 30.0112 3.80416 30.0028 3.76023L29.7112 1.6633C29.6834 1.56625 29.6336 1.47664 29.5654 1.40119C29.5264 1.35684 29.4778 1.32168 29.4231 1.2983C29.3684 1.27492 29.309 1.26394 29.2494 1.26616H27.7667C27.7103 1.26562 27.6546 1.27919 27.605 1.3056C27.5554 1.332 27.5134 1.37037 27.4832 1.41708C27.4264 1.52827 27.4021 1.59976 27.4264 1.6633L27.7262 3.76023C27.7416 3.86233 27.7899 3.95694 27.8639 4.03028ZM32.5712 1.64742C32.5434 1.55036 32.4935 1.46075 32.4253 1.3853C32.3881 1.34112 32.3409 1.30596 32.2875 1.28254C32.2341 1.25913 32.1759 1.24808 32.1175 1.25027H30.6267C30.5712 1.24872 30.5163 1.26193 30.4678 1.2885C30.4193 1.31506 30.379 1.35401 30.3513 1.40119C30.2974 1.47165 30.274 1.56017 30.2864 1.64742L30.5862 3.74434C30.605 3.84537 30.6528 3.93904 30.7239 4.0144C30.7636 4.05787 30.8123 4.09245 30.8669 4.11575C30.9214 4.13906 30.9804 4.15054 31.0399 4.14942H32.5307C32.5861 4.15014 32.6406 4.13658 32.689 4.11009C32.7374 4.08361 32.7778 4.04514 32.8062 3.99852C32.8343 3.96298 32.854 3.9217 32.8639 3.87772C32.8737 3.83374 32.8733 3.78817 32.8628 3.74434L32.5712 1.64742ZM26.5595 4.82457L26.4137 3.792H19.2273C19.1144 3.79809 19.0053 3.83376 18.9113 3.89525C18.8516 3.92716 18.7997 3.97137 18.7591 4.02485C18.7186 4.07834 18.6903 4.1398 18.6763 4.20503L18.0768 6.17485C18.0529 6.22408 18.0447 6.27931 18.0533 6.33319C18.0621 6.38707 18.0872 6.43708 18.1254 6.4767C18.1937 6.53966 18.2829 6.57636 18.3766 6.57996H27.1105L24.9635 13.6174H16.2538C16.1415 13.6199 16.0322 13.6529 15.9379 13.7127C15.8233 13.784 15.7396 13.8943 15.7029 14.0224L15.0953 15.9923C15.0754 16.0428 15.0702 16.0978 15.0802 16.151C15.0903 16.2043 15.1151 16.2538 15.152 16.2941C15.2182 16.3613 15.308 16.4011 15.4031 16.4053H26.8431C26.9614 16.3953 27.0754 16.3572 27.1753 16.2941C27.2949 16.2282 27.3846 16.1204 27.4264 15.9923L30.7158 5.22172H27.0132C26.9545 5.22285 26.8962 5.21216 26.8418 5.1903C26.7875 5.16845 26.7383 5.13587 26.6973 5.09463C26.6303 5.0226 26.5829 4.93519 26.5595 4.84046V4.82457Z" fill="white"/>
</g>
<defs>
<clipPath id="clip0_20_1003">
<rect width="38.2838" height="20.8821" fill="white" transform="translate(0.304688 0.515625)"/>
</clipPath>
</defs>
</svg>
