<svg width="28" height="28" viewBox="0 0 28 28" fill="none" xmlns="http://www.w3.org/2000/svg">
<g id="Logo" clip-path="url(#clip0_20_997)">
<path id="Vector" fill-rule="evenodd" clip-rule="evenodd" d="M6.97632 0.140625C10.8206 0.140625 13.937 3.25703 13.937 7.10132V0.140625H20.8977C24.742 0.140625 27.8584 3.25703 27.8584 7.10132C27.8584 10.9456 24.742 14.062 20.8977 14.062C24.742 14.062 27.8584 17.1785 27.8584 21.0227C27.8584 22.9315 27.09 24.6609 25.8457 25.9184L25.8197 25.9447L25.7966 25.9677C24.5388 27.2138 22.8081 27.9834 20.8977 27.9834C19.0003 27.9834 17.2802 27.2242 16.0245 25.993C16.0082 25.977 15.992 25.9608 15.9757 25.9447C15.9605 25.9294 15.9453 25.9141 15.9302 25.8987C14.6974 24.6429 13.937 22.9216 13.937 21.0227C13.937 24.867 10.8206 27.9834 6.97632 27.9834C3.13203 27.9834 0.015625 24.867 0.015625 21.0227V14.062H6.97632C3.13203 14.062 0.015625 10.9456 0.015625 7.10132C0.015625 3.25703 3.13203 0.140625 6.97632 0.140625ZM12.5449 7.10132C12.5449 10.1768 10.0518 12.6699 6.97632 12.6699V1.53276C10.0518 1.53276 12.5449 4.02589 12.5449 7.10132ZM26.4663 21.0227C26.4663 17.9473 23.9732 15.4542 20.8977 15.4542C17.8223 15.4542 15.3292 17.9473 15.3292 21.0227H26.4663ZM1.40776 15.4542V21.0227C1.40776 24.0982 3.90089 26.5913 6.97632 26.5913C10.0518 26.5913 12.5449 24.0982 12.5449 21.0227V15.4542H1.40776ZM15.3292 12.6699V1.53276H20.8977C23.9732 1.53276 26.4663 4.02589 26.4663 7.10132C26.4663 10.1768 23.9732 12.6699 20.8977 12.6699H15.3292Z" fill="#263238"/>
</g>
<defs>
<clipPath id="clip0_20_997">
<rect width="27.8428" height="27.8428" fill="white" transform="translate(0.015625 0.140625)"/>
</clipPath>
</defs>
</svg>
